<svg width="68" height="46" viewBox="0 0 68 46" fill="none" xmlns="http://www.w3.org/2000/svg">
<path d="M25.6668 34H42.3335M9.00016 34H2.3335V2.00004C2.3335 2.00004 35.789 2.00004 54.8668 2.00004C56.1093 1.99139 57.3294 2.33012 58.3896 2.978C59.4497 3.62588 60.3078 4.55714 60.8668 5.66671L63.5335 11.1C64.933 13.8821 65.6635 16.9525 65.6668 20.0667V34H59.0002M25.6668 35.6667C25.6668 40.2691 21.9359 44 17.3335 44C12.7311 44 9.00016 40.2691 9.00016 35.6667C9.00016 31.0643 12.7311 27.3334 17.3335 27.3334C21.9359 27.3334 25.6668 31.0643 25.6668 35.6667ZM59.0002 35.6667C59.0002 40.2691 55.2692 44 50.6668 44C46.0645 44 42.3335 40.2691 42.3335 35.6667C42.3335 31.0643 46.0645 27.3334 50.6668 27.3334C55.2692 27.3334 59.0002 31.0643 59.0002 35.6667Z" stroke="white" stroke-width="3" stroke-linecap="round" stroke-linejoin="round"/>
</svg>
