<svg width="69" height="70" viewBox="0 0 69 70" fill="none" xmlns="http://www.w3.org/2000/svg">
<path d="M18.3332 68.3333H8.33317C6.56506 68.3333 4.86937 67.6309 3.61912 66.3807C2.36888 65.1304 1.6665 63.4347 1.6665 61.6666V38.3333C1.6665 36.5652 2.36888 34.8695 3.61912 33.6192C4.86937 32.369 6.56506 31.6666 8.33317 31.6666H18.3332M41.6665 25V11.6666C41.6665 9.01446 40.6129 6.47092 38.7376 4.59556C36.8622 2.72019 34.3187 1.66663 31.6665 1.66663L18.3332 31.6666V68.3333H55.9332C57.5409 68.3515 59.1011 67.788 60.3262 66.7466C61.5513 65.7053 62.3588 64.2563 62.5998 62.6666L67.1998 32.6666C67.3449 31.7111 67.2804 30.7356 67.011 29.8075C66.7415 28.8794 66.2735 28.0209 65.6394 27.2917C65.0052 26.5624 64.2201 25.9797 63.3384 25.584C62.4567 25.1883 61.4995 24.989 60.5332 25H41.6665Z" stroke="white" stroke-width="3" stroke-linejoin="round"/>
</svg>
