<svg width="54" height="58" viewBox="0 0 54 58" fill="none" xmlns="http://www.w3.org/2000/svg">
<path d="M12.3335 55.6667H45.6668M22.3335 55.6667C40.6668 47.3334 25.0001 34.3334 32.3335 22.3334M32.3335 22.3334C32.1804 17.6205 33.4588 12.9719 36.0002 9.00004C39.0002 5.66671 43.3335 2.66671 52.3335 2.33337C52.0002 10 50.0002 14.3334 46.6668 17.6667C43.3335 20.3334 38.6668 22 32.3335 22.3334ZM20.6668 20.3333C24.3335 23 26.6668 27.6667 28.3335 32.6667C21.6668 34 16.6668 34 12.3335 31.6667C8.3335 29.6667 4.66683 25.3333 2.3335 17.6666C11.6668 16 17.0002 17.6666 20.6668 20.3333Z" stroke="white" stroke-width="3" stroke-linejoin="round"/>
</svg>
