<svg width="78" height="78" viewBox="0 0 78 78" fill="none" xmlns="http://www.w3.org/2000/svg">
<path d="M64.0001 32.1332C67.1027 33.9209 69.7521 36.3987 71.7433 39.3747C73.7346 42.3507 75.0142 45.7451 75.4831 49.295C75.9519 52.8448 75.5975 56.455 74.4473 59.8459C73.297 63.2369 71.3817 66.3176 68.8498 68.8495C66.3178 71.3815 63.2371 73.2967 59.8462 74.447C56.4553 75.5973 52.8451 75.9517 49.2952 75.4828C45.7453 75.0139 42.351 73.7343 39.375 71.7431C36.399 69.7518 33.9212 67.1024 32.1335 63.9999M22.3335 19H25.6668V32.3334M56.6668 46.6668L59.0002 49.0002L49.6668 58.3335M49.0002 25.6667C49.0002 38.5534 38.5535 49 25.6668 49C12.7802 49 2.3335 38.5534 2.3335 25.6667C2.3335 12.7801 12.7802 2.33337 25.6668 2.33337C38.5535 2.33337 49.0002 12.7801 49.0002 25.6667Z" stroke="white" stroke-width="3" stroke-linejoin="round"/>
</svg>
