<svg width="18" height="14" viewBox="0 0 18 14" fill="none" xmlns="http://www.w3.org/2000/svg">
<path d="M10.8353 1.00009H7.16775L5.334 3.20059H3.1335C2.74443 3.20059 2.37129 3.35514 2.09618 3.63026C1.82106 3.90538 1.6665 4.27851 1.6665 4.66759V11.2691C1.6665 11.6582 1.82106 12.0313 2.09618 12.3064C2.37129 12.5815 2.74443 12.7361 3.1335 12.7361H14.8695C15.2586 12.7361 15.6317 12.5815 15.9068 12.3064C16.1819 12.0313 16.3365 11.6582 16.3365 11.2691V4.66759C16.3365 4.27851 16.1819 3.90538 15.9068 3.63026C15.6317 3.35514 15.2586 3.20059 14.8695 3.20059H12.669L10.8353 1.00009Z" stroke="white" stroke-width="2" stroke-linecap="round" stroke-linejoin="round"/>
<path d="M9.0015 9.80208C10.2168 9.80208 11.202 8.81689 11.202 7.60159C11.202 6.38628 10.2168 5.40109 9.0015 5.40109C7.7862 5.40109 6.801 6.38628 6.801 7.60159C6.801 8.81689 7.7862 9.80208 9.0015 9.80208Z" stroke="white" stroke-width="2" stroke-linecap="round" stroke-linejoin="round"/>
</svg>
